<svg width="680" height="420" viewBox="0 0 680 420" xmlns="http://www.w3.org/2000/svg">
  <defs>
    <style>
      .logo-main  { font-family: Arial, sans-serif; font-size: 62px; font-weight: 900; letter-spacing: -2px; }
      .logo-fresh { fill: #e84c1e; }
      .logo-food  { fill: #1c1c1c; }
      .logo-sub   { font-family: Arial, sans-serif; font-size: 11px; font-weight: 300; fill: #999999; letter-spacing: 7px; }
      .logo-loc   { font-family: Arial, sans-serif; font-size: 13px; font-weight: 700; fill: #e84c1e; letter-spacing: 5px; }
    </style>
  </defs>

  <ellipse cx="340" cy="175" rx="68" ry="10" fill="#e84c1e" opacity="0.15"/>
  <ellipse cx="340" cy="172" rx="68" ry="10" fill="none" stroke="#e84c1e" stroke-width="2.5"/>

  <path d="M272 172 Q272 108 340 102 Q408 108 408 172 Z" fill="#e84c1e"/>

  <path d="M322 95 Q318 84 322 73 Q326 62 322 51" fill="none" stroke="#e84c1e" stroke-width="2.2" stroke-linecap="round" opacity="0.5"/>
  <path d="M340 92 Q336 79 340 66 Q344 53 340 40" fill="none" stroke="#e84c1e" stroke-width="2.2" stroke-linecap="round" opacity="0.7"/>
  <path d="M358 95 Q362 84 358 73 Q354 62 358 51" fill="none" stroke="#e84c1e" stroke-width="2.2" stroke-linecap="round" opacity="0.5"/>

  <ellipse cx="340" cy="103" rx="10" ry="6" fill="#c63d12"/>

  <path d="M290 148 Q300 128 318 118" fill="none" stroke="#ffffff" stroke-width="2" stroke-linecap="round" opacity="0.25"/>

  <text text-anchor="middle" x="340" y="240">
    <tspan class="logo-main logo-fresh">FRESH </tspan><tspan class="logo-main logo-food">FOOD</tspan>
  </text>

  <line x1="200" y1="258" x2="480" y2="258" stroke="#e8e8e8" stroke-width="1"/>
  <rect x="332" y="253" width="16" height="10" rx="5" fill="#e84c1e"/>

  <text class="logo-loc" x="340" y="287" text-anchor="middle">PARIS</text>

  <text class="logo-sub" x="340" y="315" text-anchor="middle">pizza · fast food · cuisine fraiche</text>

  <rect x="260" y="334" width="60" height="2" rx="1" fill="#e84c1e" opacity="0.4"/>
  <rect x="326" y="334" width="8"  height="2" rx="1" fill="#e84c1e"/>
  <rect x="340" y="334" width="80" height="2" rx="1" fill="#e84c1e" opacity="0.4"/>

</svg>
